<svg xmlns="http://www.w3.org/2000/svg" viewBox="0 0 64 64" fill="none">
  <rect width="64" height="64" rx="12" fill="#0a0a0a"/>
  <rect x="10" y="10" width="44" height="44" rx="8" fill="#111"/>
  <rect x="16" y="16" width="32" height="32" rx="6" fill="none" stroke="#f5f5f5" stroke-width="2.2" opacity="0.8"/>
  <!-- Circuit lines -->
  <path d="M24 22h8M32 22v4m0 4v4m0 4v4m0 4h8" stroke="#f5f5f5" stroke-width="2" stroke-linecap="round" opacity="0.9"/>
  <circle cx="24" cy="22" r="1.6" fill="#f5f5f5"/>
  <circle cx="32" cy="30" r="1.6" fill="#f5f5f5"/>
  <circle cx="32" cy="38" r="1.6" fill="#f5f5f5"/>
  <circle cx="40" cy="46" r="1.6" fill="#f5f5f5"/>
  <!-- Minimal lock -->
  <rect x="23" y="28" width="18" height="16" rx="3" fill="#1a1a1a" stroke="#f5f5f5" stroke-width="2"/>
  <path d="M26 28v-2c0-3.5 2.8-6.5 6.5-6.5S39 22.5 39 26v2" stroke="#f5f5f5" stroke-width="2" stroke-linecap="round"/>
  <circle cx="32" cy="34" r="2" fill="#f5f5f5"/>
  <path d="M32 36v4" stroke="#f5f5f5" stroke-width="2" stroke-linecap="round"/>
</svg>

